<?xml version="1.0" encoding="UTF-8" standalone="no"?>
<svg
   xmlns:dc="http://purl.org/dc/elements/1.1/"
   xmlns:cc="http://creativecommons.org/ns#"
   xmlns:rdf="http://www.w3.org/1999/02/22-rdf-syntax-ns#"
   xmlns:svg="http://www.w3.org/2000/svg"
   xmlns="http://www.w3.org/2000/svg"
   xmlns:sodipodi="http://sodipodi.sourceforge.net/DTD/sodipodi-0.dtd"
   xmlns:inkscape="http://www.inkscape.org/namespaces/inkscape"
   viewBox="0 0 339.195 422.31101"
   height="422.311"
   width="339.19501"
   xml:space="preserve"
   id="svg2"
   version="1.1"
   sodipodi:docname="20201027.svg"
   inkscape:version="0.92.3 (2405546, 2018-03-11)"><sodipodi:namedview
     pagecolor="#ffffff"
     bordercolor="#666666"
     borderopacity="1"
     objecttolerance="10"
     gridtolerance="10"
     guidetolerance="10"
     inkscape:pageopacity="0"
     inkscape:pageshadow="2"
     inkscape:window-width="1920"
     inkscape:window-height="1017"
     id="namedview863"
     showgrid="false"
     inkscape:zoom="1.2547469"
     inkscape:cx="-206.12022"
     inkscape:cy="191.21703"
     inkscape:window-x="-8"
     inkscape:window-y="-8"
     inkscape:window-maximized="1"
     inkscape:current-layer="layer3"
     fit-margin-top="0"
     fit-margin-left="0"
     fit-margin-right="0"
     fit-margin-bottom="0" /><metadata
     id="metadata8"><rdf:RDF><cc:Work
         rdf:about=""><dc:format>image/svg+xml</dc:format><dc:type
           rdf:resource="http://purl.org/dc/dcmitype/StillImage" /><dc:title /></cc:Work></rdf:RDF></metadata><defs
     id="defs6"><clipPath
       id="clipPath20"
       clipPathUnits="userSpaceOnUse"><path
         id="path18"
         d="M 0,850.39 H 1190.55 V 0 H 0 Z"
         inkscape:connector-curvature="0" /></clipPath></defs><g
     inkscape:groupmode="layer"
     id="layer2"
     inkscape:label="Text"
     style="display:inline"
     transform="translate(-614.1673,-233.40613)" /><g
     inkscape:groupmode="layer"
     id="layer4"
     inkscape:label="White background"
     style="display:inline"
     transform="translate(-614.1673,-233.40613)" /><g
     inkscape:groupmode="layer"
     id="layer3"
     inkscape:label="3P"
     style="display:inline"
     transform="translate(-614.1673,-233.40613)"><g
       id="g938"
       inkscape:export-xdpi="96"
       inkscape:export-ydpi="96"><rect
         y="233.40613"
         x="614.1673"
         height="422.311"
         width="339.19501"
         id="rect856"
         style="opacity:1;fill:#ffffff;fill-opacity:1;stroke:none;stroke-width:7.75442171;stroke-linecap:round;stroke-linejoin:round;stroke-miterlimit:4;stroke-dasharray:none;stroke-opacity:1" /><g
         id="g935"><g
           style="display:inline"
           id="g988"><path
             inkscape:connector-curvature="0"
             id="path30"
             style="fill:#7a6a58;fill-opacity:1;fill-rule:nonzero;stroke:none;stroke-width:1.33333325"
             d="m 626.48325,528.72249 h 6.67333 v 48.776 h -6.67333 z" /><g
             transform="matrix(1.3333333,0,0,-1.3333333,643.22085,541.93862)"
             id="g32"><path
               inkscape:connector-curvature="0"
               id="path34"
               style="fill:#7a6a58;fill-opacity:1;fill-rule:nonzero;stroke:none"
               d="m 0,0 h 4.433 v -3.785 c 1.062,1.311 2.025,2.266 2.888,2.864 1.478,1.013 3.154,1.519 5.031,1.519 2.125,0 3.835,-0.523 5.129,-1.569 0.731,-0.597 1.395,-1.477 1.993,-2.639 0.996,1.427 2.166,2.486 3.511,3.174 1.345,0.689 2.855,1.034 4.532,1.034 3.586,0 6.026,-1.295 7.321,-3.885 0.698,-1.395 1.046,-3.271 1.046,-5.627 V -26.67 h -4.656 v 18.527 c 0,1.777 -0.445,2.997 -1.332,3.661 -0.889,0.664 -1.972,0.996 -3.25,0.996 -1.76,0 -3.275,-0.589 -4.545,-1.768 -1.27,-1.179 -1.905,-3.146 -1.905,-5.902 V -26.67 h -4.557 v 17.406 c 0,1.81 -0.216,3.13 -0.648,3.96 -0.681,1.245 -1.951,1.868 -3.81,1.868 -1.693,0 -3.233,-0.656 -4.619,-1.967 -1.387,-1.312 -2.08,-3.686 -2.08,-7.122 V -26.67 H 0 Z" /></g><g
             transform="matrix(1.3333333,0,0,-1.3333333,700.00151,541.93862)"
             id="g36"><path
               inkscape:connector-curvature="0"
               id="path38"
               style="fill:#7a6a58;fill-opacity:1;fill-rule:nonzero;stroke:none"
               d="m 0,0 h 4.433 v -3.785 c 1.062,1.311 2.025,2.266 2.888,2.864 1.478,1.013 3.154,1.519 5.031,1.519 2.125,0 3.835,-0.523 5.129,-1.569 0.731,-0.597 1.395,-1.477 1.993,-2.639 0.996,1.427 2.166,2.486 3.511,3.174 1.345,0.689 2.855,1.034 4.532,1.034 3.586,0 6.026,-1.295 7.321,-3.885 0.698,-1.395 1.046,-3.271 1.046,-5.627 V -26.67 h -4.656 v 18.527 c 0,1.777 -0.445,2.997 -1.332,3.661 -0.889,0.664 -1.972,0.996 -3.25,0.996 -1.76,0 -3.275,-0.589 -4.545,-1.768 -1.27,-1.179 -1.905,-3.146 -1.905,-5.902 V -26.67 h -4.557 v 17.406 c 0,1.81 -0.216,3.13 -0.648,3.96 -0.681,1.245 -1.951,1.868 -3.81,1.868 -1.693,0 -3.233,-0.656 -4.619,-1.967 -1.387,-1.312 -2.08,-3.686 -2.08,-7.122 V -26.67 H 0 Z" /></g><g
             transform="matrix(1.3333333,0,0,-1.3333333,778.83685,569.12089)"
             id="g40"><path
               inkscape:connector-curvature="0"
               id="path42"
               style="fill:#7a6a58;fill-opacity:1;fill-rule:nonzero;stroke:none"
               d="m 0,0 c 1.092,2.247 1.638,4.747 1.638,7.499 0,2.487 -0.394,4.511 -1.182,6.069 -1.248,2.454 -3.398,3.682 -6.452,3.682 -2.709,0 -4.678,-1.045 -5.909,-3.135 -1.231,-2.09 -1.847,-4.609 -1.847,-7.56 0,-2.836 0.616,-5.199 1.847,-7.089 1.231,-1.891 3.184,-2.835 5.86,-2.835 2.939,0 4.953,1.123 6.045,3.369 M 2.783,17.726 C 5.14,15.437 6.319,12.069 6.319,7.624 6.319,3.328 5.28,-0.222 3.204,-3.024 1.126,-5.828 -2.097,-7.229 -6.465,-7.229 c -3.643,0 -6.536,1.239 -8.68,3.719 -2.143,2.48 -3.214,5.81 -3.214,9.989 0,4.479 1.13,8.045 3.388,10.7 2.258,2.653 5.291,3.98 9.099,3.98 3.413,0 6.298,-1.144 8.655,-3.433" /></g><g
             transform="matrix(1.3333333,0,0,-1.3333333,817.09071,569.49596)"
             id="g44"><path
               inkscape:connector-curvature="0"
               id="path46"
               style="fill:#7a6a58;fill-opacity:1;fill-rule:nonzero;stroke:none"
               d="m 0,0 c 1.208,1.925 1.812,4.465 1.812,7.619 0,2.806 -0.604,5.131 -1.812,6.973 -1.208,1.844 -2.986,2.764 -5.334,2.764 -2.05,0 -3.844,-0.755 -5.385,-2.266 -1.541,-1.511 -2.311,-4.001 -2.311,-7.471 0,-2.507 0.316,-4.54 0.949,-6.1 1.183,-2.939 3.39,-4.408 6.622,-4.408 2.431,0 4.251,0.962 5.459,2.889 m -17.139,30.704 h 4.358 V 17.432 c 0.983,1.277 2.158,2.253 3.525,2.925 1.366,0.672 2.85,1.008 4.45,1.008 3.333,0 6.037,-1.141 8.112,-3.424 2.075,-2.282 3.112,-5.648 3.112,-10.097 0,-4.217 -1.025,-7.72 -3.075,-10.509 -2.05,-2.789 -4.891,-4.184 -8.524,-4.184 -2.033,0 -3.75,0.491 -5.15,1.47 -0.833,0.58 -1.725,1.51 -2.674,2.789 v -3.412 h -4.134 z" /></g><path
             inkscape:connector-curvature="0"
             id="path48"
             style="fill:#7a6a58;fill-opacity:1;fill-rule:nonzero;stroke:none;stroke-width:1.33333325"
             d="m 832.68991,542.10382 h 6.076 v 35.39467 h -6.076 z m 0,-13.38133 h 6.076 v 6.77333 h -6.076 z" /><path
             inkscape:connector-curvature="0"
             id="path50"
             style="fill:#7a6a58;fill-opacity:1;fill-rule:nonzero;stroke:none;stroke-width:1.33333325"
             d="m 848.09924,528.72249 h 5.976 v 48.776 h -5.976 z" /><path
             inkscape:connector-curvature="0"
             id="path52"
             style="fill:#7a6a58;fill-opacity:1;fill-rule:nonzero;stroke:none;stroke-width:1.33333325"
             d="m 863.17791,542.10382 h 6.076 v 35.39467 h -6.076 z m 0,-13.38133 h 6.076 v 6.77333 h -6.076 z" /><g
             transform="matrix(1.3333333,0,0,-1.3333333,902.52684,556.87876)"
             id="g54"><path
               inkscape:connector-curvature="0"
               id="path56"
               style="fill:#7a6a58;fill-opacity:1;fill-rule:nonzero;stroke:none"
               d="M 0,0 C -0.182,1.941 -0.602,3.494 -1.26,4.656 -2.479,6.814 -4.511,7.894 -7.359,7.894 -9.4,7.894 -11.112,7.15 -12.495,5.665 -13.878,4.179 -14.611,2.291 -14.693,0 Z M -1.605,10.471 C 0.16,9.583 1.504,8.433 2.428,7.021 3.318,5.678 3.912,4.108 4.211,2.315 4.475,1.087 4.605,-0.872 4.605,-3.562 h -19.397 c 0.082,-2.713 0.716,-4.89 1.902,-6.53 1.186,-1.639 3.023,-2.459 5.51,-2.459 2.322,0 4.176,0.776 5.56,2.326 0.773,0.901 1.322,1.943 1.644,3.127 H 4.232 C 4.117,-8.077 3.73,-9.169 3.074,-10.372 2.418,-11.576 1.687,-12.56 0.881,-13.323 c -1.352,-1.328 -3.024,-2.225 -5.018,-2.69 -1.071,-0.265 -2.281,-0.398 -3.633,-0.398 -3.299,0 -6.096,1.208 -8.389,3.623 -2.293,2.416 -3.44,5.798 -3.44,10.147 0,4.284 1.155,7.762 3.465,10.435 2.31,2.673 5.329,4.009 9.058,4.009 1.882,0 3.704,-0.445 5.471,-1.332" /></g><g
             transform="matrix(1.3333333,0,0,-1.3333333,916.37578,541.93862)"
             id="g58"><path
               inkscape:connector-curvature="0"
               id="path60"
               style="fill:#7a6a58;fill-opacity:1;fill-rule:nonzero;stroke:none"
               d="m 0,0 h 4.258 v -3.785 c 1.262,1.56 2.598,2.681 4.01,3.362 1.411,0.681 2.979,1.021 4.707,1.021 3.785,0 6.34,-1.32 7.67,-3.959 0.729,-1.445 1.095,-3.512 1.095,-6.202 V -26.67 h -4.557 v 16.809 c 0,1.627 -0.242,2.939 -0.722,3.935 -0.797,1.659 -2.242,2.49 -4.334,2.49 -1.063,0 -1.934,-0.108 -2.614,-0.324 C 8.284,-4.125 7.205,-4.855 6.275,-5.951 5.528,-6.831 5.043,-7.74 4.818,-8.678 4.595,-9.616 4.482,-10.957 4.482,-12.699 V -26.67 H 0 Z" /></g><g
             transform="matrix(1.3333333,0,0,-1.3333333,648.29778,612.05582)"
             id="g62"><path
               inkscape:connector-curvature="0"
               id="path64"
               style="fill:#7a6a58;fill-opacity:1;fill-rule:nonzero;stroke:none"
               d="M 0,0 C -0.181,1.941 -0.601,3.494 -1.259,4.656 -2.478,6.814 -4.511,7.894 -7.358,7.894 -9.4,7.894 -11.112,7.15 -12.495,5.665 -13.877,4.179 -14.61,2.291 -14.692,0 Z M -1.605,10.471 C 0.16,9.583 1.505,8.433 2.429,7.021 3.32,5.678 3.914,4.108 4.211,2.315 4.475,1.087 4.607,-0.872 4.607,-3.562 h -19.399 c 0.083,-2.713 0.717,-4.89 1.903,-6.53 1.186,-1.639 3.022,-2.459 5.509,-2.459 2.323,0 4.176,0.776 5.56,2.326 0.774,0.901 1.323,1.943 1.646,3.127 H 4.233 C 4.117,-8.077 3.731,-9.169 3.075,-10.372 2.419,-11.576 1.688,-12.56 0.881,-13.323 c -1.351,-1.328 -3.024,-2.225 -5.017,-2.69 -1.072,-0.265 -2.282,-0.398 -3.633,-0.398 -3.3,0 -6.096,1.208 -8.39,3.623 -2.293,2.416 -3.439,5.798 -3.439,10.147 0,4.284 1.155,7.762 3.465,10.435 2.309,2.673 5.329,4.009 9.058,4.009 1.881,0 3.704,-0.445 5.47,-1.332" /></g><g
             transform="matrix(1.3333333,0,0,-1.3333333,659.29058,597.11569)"
             id="g66"><path
               inkscape:connector-curvature="0"
               id="path68"
               style="fill:#7a6a58;fill-opacity:1;fill-rule:nonzero;stroke:none"
               d="m 0,0 h 4.258 v -3.785 c 1.262,1.56 2.598,2.681 4.01,3.362 1.41,0.681 2.979,1.021 4.706,1.021 3.785,0 6.341,-1.32 7.67,-3.959 0.731,-1.445 1.096,-3.512 1.096,-6.202 V -26.67 h -4.557 v 16.809 c 0,1.627 -0.241,2.939 -0.723,3.935 -0.796,1.659 -2.241,2.49 -4.333,2.49 -1.062,0 -1.934,-0.108 -2.614,-0.324 C 8.284,-4.125 7.205,-4.855 6.275,-5.951 5.528,-6.831 5.043,-7.74 4.818,-8.678 4.595,-9.616 4.482,-10.957 4.482,-12.699 V -26.67 H 0 Z" /></g><g
             transform="matrix(1.3333333,0,0,-1.3333333,695.58418,587.18729)"
             id="g70"><path
               inkscape:connector-curvature="0"
               id="path72"
               style="fill:#7a6a58;fill-opacity:1;fill-rule:nonzero;stroke:none"
               d="m 0,0 h 4.532 v -7.446 h 4.259 v -3.66 H 4.532 v -17.407 c 0,-0.93 0.315,-1.552 0.947,-1.868 0.348,-0.182 0.929,-0.274 1.743,-0.274 0.215,0 0.448,0.006 0.697,0.016 0.249,0.011 0.539,0.039 0.872,0.083 v -3.56 c -0.515,-0.15 -1.051,-0.257 -1.606,-0.324 -0.557,-0.066 -1.159,-0.1 -1.806,-0.1 -2.092,0 -3.511,0.536 -4.258,1.606 C 0.374,-31.862 0,-30.473 0,-28.763 v 17.657 h -3.611 v 3.66 H 0 Z" /></g><g
             transform="matrix(1.3333333,0,0,-1.3333333,713.33351,597.11569)"
             id="g74"><path
               inkscape:connector-curvature="0"
               id="path76"
               style="fill:#7a6a58;fill-opacity:1;fill-rule:nonzero;stroke:none"
               d="M 0,0 5.13,-21.018 10.335,0 h 5.03 L 20.595,-20.893 26.048,0 H 30.53 L 22.786,-26.67 H 18.129 L 12.7,-6.025 7.446,-26.67 H 2.789 L -4.905,0 Z" /></g><path
             inkscape:connector-curvature="0"
             id="path78"
             style="fill:#7a6a58;fill-opacity:1;fill-rule:nonzero;stroke:none;stroke-width:1.33333325"
             d="m 756.94858,597.28116 h 6.076 v 35.39466 h -6.076 z m 0,-13.38134 h 6.076 v 6.77334 h -6.076 z" /><g
             transform="matrix(1.3333333,0,0,-1.3333333,792.82698,599.00769)"
             id="g80"><path
               inkscape:connector-curvature="0"
               id="path82"
               style="fill:#7a6a58;fill-opacity:1;fill-rule:nonzero;stroke:none"
               d="m 0,0 c 1.884,-1.461 3.017,-3.977 3.399,-7.546 h -4.357 c -0.266,1.645 -0.872,3.01 -1.818,4.097 -0.947,1.087 -2.466,1.632 -4.557,1.632 -2.856,0 -4.898,-1.394 -6.126,-4.179 -0.797,-1.808 -1.196,-4.038 -1.196,-6.691 0,-2.669 0.564,-4.917 1.694,-6.741 1.128,-1.823 2.904,-2.735 5.329,-2.735 1.859,0 3.332,0.566 4.42,1.699 1.087,1.133 1.838,2.683 2.254,4.651 h 4.357 c -0.498,-3.536 -1.743,-6.123 -3.735,-7.757 -1.992,-1.635 -4.541,-2.452 -7.645,-2.452 -3.486,0 -6.267,1.273 -8.342,3.822 -2.076,2.548 -3.113,5.731 -3.113,9.55 0,4.681 1.137,8.325 3.412,10.932 2.274,2.606 5.17,3.909 8.691,3.909 C -4.329,2.191 -1.884,1.461 0,0" /></g><g
             transform="matrix(1.3333333,0,0,-1.3333333,800.48325,583.89956)"
             id="g84"><path
               inkscape:connector-curvature="0"
               id="path86"
               style="fill:#7a6a58;fill-opacity:1;fill-rule:nonzero;stroke:none"
               d="m 0,0 h 4.308 v -21.24 l 11.494,11.328 h 5.726 l -10.25,-9.916 10.826,-16.754 H 16.377 L 7.989,-23.01 4.308,-26.571 V -36.582 H 0 Z" /></g><path
             inkscape:connector-curvature="0"
             id="path88"
             style="fill:#7a6a58;fill-opacity:1;fill-rule:nonzero;stroke:none;stroke-width:1.33333325"
             d="m 832.06324,583.89982 h 5.976 v 48.776 h -5.976 z" /><g
             transform="matrix(1.3333333,0,0,-1.3333333,850.26058,597.11569)"
             id="g90"><path
               inkscape:connector-curvature="0"
               id="path92"
               style="fill:#7a6a58;fill-opacity:1;fill-rule:nonzero;stroke:none"
               d="m 0,0 v -17.705 c 0,-1.361 0.21,-2.474 0.631,-3.337 0.776,-1.594 2.223,-2.391 4.341,-2.391 3.039,0 5.109,1.395 6.208,4.184 0.598,1.494 0.898,3.544 0.898,6.151 V 0 h 4.482 v -26.67 h -4.233 l 0.049,3.935 c -0.57,-1.013 -1.279,-1.869 -2.126,-2.566 -1.678,-1.394 -3.714,-2.092 -6.109,-2.092 -3.73,0 -6.272,1.271 -7.623,3.811 -0.733,1.361 -1.1,3.179 -1.1,5.453 V 0 Z" /></g><g
             transform="matrix(1.3333333,0,0,-1.3333333,879.38231,597.11569)"
             id="g94"><path
               inkscape:connector-curvature="0"
               id="path96"
               style="fill:#7a6a58;fill-opacity:1;fill-rule:nonzero;stroke:none"
               d="m 0,0 h 4.258 v -3.785 c 1.262,1.56 2.598,2.681 4.01,3.362 1.41,0.681 2.979,1.021 4.706,1.021 3.786,0 6.341,-1.32 7.671,-3.959 0.729,-1.445 1.095,-3.512 1.095,-6.202 V -26.67 h -4.557 v 16.809 c 0,1.627 -0.242,2.939 -0.722,3.935 -0.798,1.659 -2.242,2.49 -4.334,2.49 -1.062,0 -1.934,-0.108 -2.614,-0.324 C 8.284,-4.125 7.205,-4.855 6.275,-5.951 5.528,-6.831 5.043,-7.74 4.818,-8.678 4.595,-9.616 4.482,-10.957 4.482,-12.699 V -26.67 H 0 Z" /></g><g
             transform="matrix(1.3333333,0,0,-1.3333333,934.98004,604.95169)"
             id="g98"><path
               inkscape:connector-curvature="0"
               id="path100"
               style="fill:#7a6a58;fill-opacity:1;fill-rule:nonzero;stroke:none"
               d="m 0,0 c -1.354,1.594 -3.08,2.391 -5.178,2.391 -3.138,0 -5.286,-1.478 -6.441,-4.432 -0.611,-1.578 -0.917,-3.645 -0.917,-6.201 0,-3.005 0.607,-5.292 1.821,-6.861 1.214,-1.569 2.845,-2.353 4.893,-2.353 3.204,0 5.459,1.452 6.763,4.358 0.727,1.643 1.09,3.561 1.09,5.752 C 2.031,-4.042 1.354,-1.594 0,0 M -0.548,4.807 C 0.295,4.226 1.155,3.379 2.031,2.267 v 3.362 h 4.135 v -24.256 c 0,-3.387 -0.497,-6.059 -1.489,-8.018 -1.854,-3.619 -5.354,-5.429 -10.499,-5.429 -2.863,0 -5.27,0.644 -7.222,1.93 -1.953,1.287 -3.045,3.3 -3.277,6.039 h 4.557 c 0.214,-1.196 0.644,-2.117 1.287,-2.764 1.007,-0.996 2.593,-1.494 4.756,-1.494 3.418,0 5.655,1.212 6.711,3.635 0.628,1.428 0.917,3.976 0.867,7.646 -0.892,-1.362 -1.967,-2.375 -3.224,-3.039 -1.257,-0.664 -2.919,-0.996 -4.986,-0.996 -2.877,0 -5.395,1.025 -7.553,3.076 -2.158,2.05 -3.237,5.441 -3.237,10.172 0,4.466 1.087,7.952 3.262,10.459 2.174,2.507 4.8,3.761 7.875,3.761 2.084,0 3.903,-0.515 5.458,-1.544" /></g></g><rect
           style="display:inline;fill:#ffffff;fill-opacity:1;stroke:none;stroke-width:50.69628525;stroke-linecap:round;stroke-miterlimit:4;stroke-dasharray:none;stroke-opacity:1"
           id="rect4755"
           width="318.117"
           height="275.48401"
           x="626.49597"
           y="241.40627" /><path
           style="fill:#969328;fill-opacity:1;fill-rule:nonzero;stroke:none;stroke-width:1.33333325"
           d="m 626.49609,241.40625 v 104.5 c 2.86526,-4.81118 6.94793,-9.12746 12.28125,-12.9375 11.52666,-8.22934 26.41297,-12.35156 44.6543,-12.35156 20.772,0 37.43461,4.88152 49.97461,14.63086 12.54266,9.75733 18.81445,22.48803 18.81445,38.19336 0,15.71467 -6.27179,28.88539 -18.81445,39.52539 -12.54,10.64133 -29.20261,16.97662 -49.97461,19.00195 l -0.37891,1.14063 c 19.76267,0.25598 35.34281,3.93081 46.74415,11.02148 20.01067,12.416 30.02343,29.89864 30.02343,52.44531 0,7.10664 -0.9064,13.87632 -2.71289,20.31445 H 944.61328 V 342.31055 c -5.07234,9.90861 -12.9698,18.3532 -23.69531,25.33203 -12.74933,8.336 -28.9252,12.50195 -48.5332,12.50195 -8.33734,0 -17.7765,-0.85689 -28.3125,-2.57422 v 104.42774 c 0,5.64 0.24165,9.18877 0.73632,10.66211 1.224,3.43733 3.91722,5.51595 8.08789,6.25195 7.10666,0.98 13.97314,1.4707 20.5918,1.4707 2.69334,0 4.04297,0.86161 4.04297,2.57227 0,2.45467 -1.71715,3.67773 -5.14648,3.67773 h -3.67774 -76.11133 -4.77929 c -7.35467,0 -11.03125,-1.22226 -11.03125,-3.68359 0,-1.71867 2.5727,-2.58008 7.7207,-2.58008 11.52,0 18.13876,-1.10131 19.85742,-3.30664 1.95867,-0.98267 3.06059,-3.43723 3.3086,-7.36523 V 272.43164 c 0,-7.608 -2.08601,-12.27209 -6.25,-13.99609 -2.45467,-0.976 -6.7471,-1.47071 -12.8711,-1.47071 h -3.67578 -2.57422 c -3.67733,0 -5.51562,-0.98237 -5.51562,-2.95703 0,-2.19467 3.42958,-3.29492 10.29492,-3.29492 h 80.89062 c 27.94667,0 48.40891,4.90765 61.40625,14.70899 6.52833,4.89654 11.60536,10.68875 15.23633,17.37304 v -41.38867 z m 240.00586,15.55859 c -10.296,0 -17.04061,1.73027 -20.22461,5.1836 -1.47066,1.48133 -2.20507,5.30279 -2.20507,11.46679 v 98.43946 c 1.95867,0.24666 4.16518,0.36914 6.61718,0.36914 16.17867,0 29.90298,-3.57571 41.18164,-10.73438 13.972,-8.88133 20.95899,-25.28356 20.95899,-49.21289 0,-37.00533 -15.44147,-55.51172 -46.32813,-55.51172 z M 672.79102,330.5 c -12.672,0 -22.29553,2.65719 -28.88086,7.97852 -5.32,4.31067 -7.98047,8.23591 -7.98047,11.78125 0,2.536 3.164,4.43645 9.5,5.70312 9.62533,2.02933 14.4414,7.21875 14.4414,15.58008 0,4.56 -1.58661,8.36039 -4.75195,11.40039 -3.17066,3.04134 -7.16137,4.56055 -11.9707,4.56055 -6.08134,0 -11.2093,-2.21572 -15.39063,-6.65039 -0.44582,-0.47241 -0.86346,-0.95707 -1.26172,-1.45118 v 137.48828 h 95.0918 c 1.40848,-7.00647 2.12891,-14.53019 2.12891,-22.5957 0,-20.012 -6.59106,-35.84986 -19.76172,-47.50586 -6.84,-5.82266 -17.23339,-8.86509 -31.16406,-9.12109 -8.616,0 -12.91993,-1.26417 -12.91993,-3.79883 0,-2.02534 3.28691,-3.4197 9.87891,-4.17969 6.58667,-0.76 13.61775,-3.04179 21.09375,-6.84179 7.46933,-3.80134 12.97925,-8.10526 16.53125,-12.91993 6.584,-8.86666 9.88086,-20.5235 9.88086,-34.96484 0,-16.46666 -5.95661,-29.00571 -17.86328,-37.62305 -6.59066,-4.56 -15.45622,-6.83984 -26.60156,-6.83984 z"
           id="path12"
           inkscape:connector-curvature="0" /></g></g></g></svg>